<?xml version="1.0" encoding="UTF-8"?>
<svg xmlns="http://www.w3.org/2000/svg" xmlns:xlink="http://www.w3.org/1999/xlink" width="80px" height="72px" viewBox="0 0 80 72" version="1.1">
<g id="surface1">
<path style=" stroke:none;fill-rule:nonzero;fill:rgb(0%,0%,0%);fill-opacity:1;" d="M 10.417969 0.445312 C 6.933594 2.523438 0.0664062 10.441406 0 12.515625 L 0 15.953125 C 0 20.308594 4.058594 24.136719 7.742188 24.136719 C 12.167969 24.136719 15.851562 20.457031 15.855469 16.09375 C 15.855469 20.457031 19.414062 24.136719 23.839844 24.136719 C 28.261719 24.136719 31.707031 20.457031 31.707031 16.09375 C 31.707031 20.457031 35.492188 24.136719 39.917969 24.136719 L 40 24.136719 C 44.421875 24.136719 48.207031 20.457031 48.207031 16.09375 C 48.207031 20.457031 51.65625 24.136719 56.078125 24.136719 C 60.503906 24.136719 64.0625 20.457031 64.0625 16.09375 C 64.0625 20.457031 67.75 24.136719 72.175781 24.136719 C 75.859375 24.136719 79.917969 20.308594 79.917969 15.953125 L 79.917969 12.515625 C 79.851562 10.441406 72.984375 2.523438 69.5 0.445312 C 58.664062 0.0664062 51.152344 0 39.957031 0 C 28.765625 0 13.503906 0.175781 10.417969 0.445312 Z M 31.652344 22.085938 C 31.230469 22.828125 30.707031 23.503906 30.097656 24.097656 C 28.425781 25.738281 26.136719 26.753906 23.613281 26.753906 C 21.183594 26.753906 18.851562 25.800781 17.117188 24.097656 C 16.511719 23.5 16.050781 22.867188 15.628906 22.125 C 15.207031 22.867188 14.621094 23.503906 14.015625 24.097656 C 12.277344 25.804688 9.945312 26.753906 7.515625 26.753906 C 7.210938 26.753906 6.894531 26.667969 6.640625 26.582031 C 6.285156 30.296875 6.132812 33.847656 6.082031 36.4375 L 6.082031 36.453125 C 6.074219 37.769531 6.066406 38.851562 6.0625 40.351562 C 6.128906 48.148438 5.292969 65.625 9.488281 69.917969 C 15.988281 71.441406 27.953125 72.132812 39.957031 72.136719 L 39.960938 72.136719 C 51.964844 72.132812 63.929688 71.441406 70.429688 69.917969 C 74.625 65.625 73.789062 48.148438 73.855469 40.351562 C 73.847656 38.851562 73.84375 37.769531 73.835938 36.453125 L 73.835938 36.4375 C 73.785156 33.847656 73.632812 30.296875 73.277344 26.578125 C 73.023438 26.667969 72.707031 26.753906 72.402344 26.753906 C 69.972656 26.753906 67.640625 25.800781 65.902344 24.097656 C 65.296875 23.503906 64.710938 22.867188 64.289062 22.125 C 63.867188 22.867188 63.40625 23.5 62.800781 24.097656 C 61.066406 25.800781 58.734375 26.753906 56.304688 26.75 C 53.78125 26.75 51.492188 25.734375 49.820312 24.097656 C 49.210938 23.503906 48.6875 22.824219 48.265625 22.085938 C 47.847656 22.824219 47.328125 23.5 46.722656 24.097656 C 44.984375 25.800781 42.652344 26.753906 40.226562 26.75 C 40.136719 26.75 40.050781 26.746094 39.960938 26.746094 L 39.957031 26.746094 C 39.871094 26.746094 39.78125 26.75 39.695312 26.75 C 37.265625 26.753906 34.933594 25.800781 33.195312 24.097656 C 32.589844 23.5 32.070312 22.824219 31.652344 22.085938 Z M 24.980469 30.742188 L 24.980469 30.746094 L 24.984375 30.746094 C 27.628906 30.753906 29.972656 30.746094 32.882812 33.933594 C 35.171875 33.691406 37.5625 33.570312 39.957031 33.574219 L 39.960938 33.574219 C 42.351562 33.570312 44.746094 33.691406 47.035156 33.933594 C 49.941406 30.746094 52.289062 30.753906 54.933594 30.746094 L 54.9375 30.746094 L 54.9375 30.742188 C 56.183594 30.742188 61.179688 30.742188 64.660156 40.550781 L 68.398438 54.003906 C 71.167969 64.011719 67.511719 64.257812 62.949219 64.265625 C 56.183594 64.011719 52.4375 59.082031 52.4375 54.15625 C 48.695312 54.769531 44.328125 55.078125 39.960938 55.078125 L 39.957031 55.078125 C 35.589844 55.078125 31.222656 54.769531 27.476562 54.15625 C 27.476562 59.082031 23.730469 64.011719 16.96875 64.265625 C 12.40625 64.257812 8.75 64.011719 11.519531 54.003906 L 15.257812 40.550781 C 18.738281 30.742188 23.734375 30.742188 24.980469 30.742188 Z M 39.957031 38.449219 L 39.957031 38.453125 C 39.949219 38.457031 32.835938 45.015625 31.558594 47.347656 L 36.214844 47.160156 L 36.214844 51.234375 C 36.214844 51.425781 38.085938 51.347656 39.957031 51.261719 L 39.960938 51.261719 C 41.832031 51.347656 43.699219 51.425781 43.699219 51.234375 L 43.699219 47.160156 L 48.359375 47.347656 C 47.078125 45.015625 39.960938 38.453125 39.960938 38.453125 L 39.960938 38.449219 Z M 39.957031 38.449219 "/>
</g>
</svg>
