<?xml version="1.0" encoding="UTF-8"?>
<svg xmlns="http://www.w3.org/2000/svg" xmlns:xlink="http://www.w3.org/1999/xlink" width="256px" height="256px" viewBox="0 0 256 256" version="1.1">
<g id="surface1">
<path style=" stroke:none;fill-rule:nonzero;fill:rgb(0%,0%,0%);fill-opacity:1;" d="M 117.675781 7.839844 C 97.25 10.046875 77.625 18.464844 61.410156 32.0625 C 46.675781 44.382812 34.644531 61.054688 27.25 79.425781 C 25.714844 83.296875 23.039062 91.136719 23.039062 91.839844 C 23.039062 92.0625 25.601562 92.128906 30.777344 92.097656 L 38.515625 92 L 39.167969 90.078125 C 39.539062 89.023438 40.816406 85.886719 42.011719 83.105469 L 44.203125 78.078125 L 59.25 78.078125 C 73.472656 78.078125 74.296875 78.113281 74.097656 78.625 C 73.757812 79.648438 71.480469 89.40625 71.253906 90.785156 L 71.054688 92.160156 L 86.160156 92.160156 L 86.472656 90.785156 C 87.210938 87.710938 87.980469 84.769531 88.945312 81.503906 L 89.96875 78.078125 L 118.898438 78.078125 L 118.898438 92.160156 L 133.6875 92.160156 L 133.6875 78.078125 L 164.890625 78.078125 L 165.859375 80.863281 C 166.371094 82.433594 167.308594 85.535156 167.964844 87.839844 L 169.160156 92 L 176.726562 92.097656 C 180.90625 92.128906 184.320312 92.128906 184.320312 92.0625 C 184.320312 91.679688 181.929688 82.304688 181.363281 80.382812 L 180.652344 78.078125 L 211.855469 78.078125 L 213.875 82.625 C 214.953125 85.152344 216.234375 88.289062 216.691406 89.601562 L 217.542969 92 L 225.367188 92.097656 L 233.1875 92.160156 L 231.964844 88.414062 C 220.8125 53.28125 195.386719 25.664062 163.269531 13.761719 C 155.476562 10.847656 149.164062 9.28125 140.941406 8.128906 C 135.738281 7.425781 123.078125 7.265625 117.675781 7.839844 Z M 155.390625 28.289062 C 168.589844 32.542969 181.078125 40.160156 191.601562 50.335938 C 194.703125 53.34375 201.386719 60.960938 201.386719 61.503906 C 201.386719 61.632812 195.328125 61.761719 187.902344 61.761719 L 174.421875 61.761719 L 172.96875 58.71875 C 168.164062 48.703125 161.761719 39.199219 154.339844 31.105469 C 152.207031 28.800781 150.585938 26.878906 150.726562 26.878906 C 150.871094 26.878906 152.972656 27.519531 155.390625 28.289062 Z M 98.671875 31.265625 C 91.449219 39.617188 85.816406 48.542969 81.09375 59.105469 L 79.929688 61.761719 L 67.269531 61.761719 C 59.535156 61.761719 54.613281 61.632812 54.613281 61.472656 C 54.613281 60.863281 63.628906 50.976562 66.703125 48.191406 C 73.5 42.078125 83.113281 35.617188 90.453125 32.289062 C 92.84375 31.199219 101.007812 27.9375 101.519531 27.871094 C 101.605469 27.839844 100.324219 29.375 98.671875 31.265625 Z M 139.378906 38.207031 C 145.40625 43.839844 152.121094 52.542969 156.871094 60.863281 L 157.355469 61.761719 L 133.6875 61.761719 L 133.6875 33.246094 L 135.339844 34.59375 C 136.21875 35.328125 138.039062 36.960938 139.378906 38.207031 Z M 118.898438 47.679688 L 118.898438 61.761719 L 107.945312 61.761719 C 101.917969 61.761719 96.996094 61.632812 96.996094 61.503906 C 96.996094 61.089844 99.925781 55.902344 102.117188 52.480469 C 104.761719 48.289062 109.054688 42.753906 111.871094 39.871094 C 114.546875 37.152344 118.355469 33.632812 118.699219 33.601562 C 118.8125 33.601562 118.898438 39.9375 118.898438 47.679688 Z M 118.898438 47.679688 "/>
<path style=" stroke:none;fill-rule:nonzero;fill:rgb(0%,0%,0%);fill-opacity:1;" d="M 24.574219 108.734375 C 23.949219 109.089844 23.125 109.761719 22.785156 110.273438 C 22.242188 111.039062 22.160156 111.457031 22.273438 112.800781 C 22.472656 114.878906 31.316406 143.359375 32.257812 144.992188 C 34.046875 148.03125 39.28125 148.800781 42.410156 146.496094 C 43.832031 145.441406 44.773438 143.039062 48.640625 130.71875 C 50.515625 124.734375 52.136719 119.617188 52.222656 119.359375 C 52.308594 119.105469 53.902344 123.777344 55.78125 129.761719 C 59.476562 141.695312 60.386719 144.257812 61.210938 145.441406 C 63.089844 148.160156 68.664062 148.640625 71.367188 146.335938 C 71.878906 145.886719 72.5625 144.863281 72.902344 144.0625 C 74.210938 140.671875 82.261719 114.273438 82.402344 112.800781 C 82.515625 111.457031 82.433594 111.039062 81.890625 110.273438 C 79.671875 107.105469 74.125 107.550781 72.617188 111.039062 C 72.277344 111.839844 70.683594 117.503906 69.089844 123.679688 C 67.527344 129.824219 66.191406 134.910156 66.160156 134.945312 C 66.132812 134.976562 64.910156 131.105469 63.460938 126.304688 C 59.363281 112.929688 58.765625 111.265625 57.402344 109.953125 C 54.726562 107.359375 49.039062 107.648438 46.761719 110.464844 C 45.738281 111.710938 45.140625 113.34375 41.785156 124.382812 C 39.453125 131.96875 38.484375 134.816406 38.34375 134.367188 C 38.230469 134.015625 36.890625 128.960938 35.414062 123.167969 C 32.597656 112.222656 31.800781 109.824219 30.550781 108.929688 C 29.410156 108.0625 26.027344 107.96875 24.574219 108.734375 Z M 24.574219 108.734375 "/>
<path style=" stroke:none;fill-rule:nonzero;fill:rgb(0%,0%,0%);fill-opacity:1;" d="M 99.953125 108.734375 C 98.191406 109.664062 97.480469 110.878906 97.648438 112.640625 C 97.792969 114.207031 106.269531 141.984375 107.320312 144.320312 C 108.457031 146.847656 110.792969 148.03125 114.0625 147.777344 C 116.136719 147.585938 117.960938 146.71875 118.839844 145.441406 C 119.664062 144.257812 120.71875 141.246094 124.273438 129.921875 C 126.007812 124.382812 127.515625 119.617188 127.601562 119.359375 C 127.6875 119.105469 129.28125 123.777344 131.15625 129.761719 C 134.941406 141.953125 136.019531 144.929688 136.902344 145.855469 C 137.984375 146.976562 139.433594 147.585938 141.285156 147.777344 C 144.441406 148.0625 147.058594 146.816406 148.109375 144.542969 C 149.078125 142.398438 157.609375 114.335938 157.78125 112.703125 C 157.921875 111.230469 157.867188 110.910156 157.269531 110.175781 C 154.964844 107.359375 149.84375 107.550781 148.222656 110.527344 C 147.882812 111.105469 146.347656 116.609375 144.78125 122.753906 C 143.1875 128.894531 141.824219 134.175781 141.710938 134.464844 C 141.566406 134.847656 140.515625 131.808594 138.554688 125.34375 C 134.628906 112.511719 134.171875 111.296875 132.777344 109.953125 C 130.105469 107.359375 124.445312 107.648438 122.113281 110.464844 C 121.203125 111.550781 120.460938 113.664062 117.019531 124.863281 C 115.34375 130.433594 113.921875 134.976562 113.890625 134.945312 C 113.863281 134.910156 112.527344 129.824219 110.960938 123.679688 C 107.945312 112 107.320312 110.078125 106.039062 109.023438 C 104.902344 108.0625 101.519531 107.9375 99.953125 108.734375 Z M 99.953125 108.734375 "/>
<path style=" stroke:none;fill-rule:nonzero;fill:rgb(0%,0%,0%);fill-opacity:1;" d="M 175.332031 108.734375 C 173.851562 109.535156 172.941406 110.847656 172.941406 112.191406 C 172.941406 113.089844 175.273438 120.894531 181.050781 139.519531 C 182.671875 144.671875 183.351562 145.984375 184.945312 146.945312 C 186.710938 148 190.75 148 192.484375 146.976562 C 194.730469 145.632812 194.929688 145.152344 199.59375 130.304688 C 201.386719 124.542969 202.949219 119.679688 203.066406 119.457031 C 203.148438 119.230469 204.574219 123.359375 206.195312 128.574219 C 210.003906 140.769531 211.226562 144.382812 211.941406 145.40625 C 212.878906 146.753906 214.671875 147.617188 216.917969 147.777344 C 220.132812 148 222.4375 146.816406 223.574219 144.351562 C 224.710938 141.792969 233.246094 113.566406 233.246094 112.289062 C 233.246094 110.558594 232.617188 109.632812 230.96875 108.832031 C 228.210938 107.488281 224.824219 108.289062 223.574219 110.527344 C 223.261719 111.105469 221.921875 115.902344 220.558594 121.152344 C 219.222656 126.433594 217.882812 131.710938 217.542969 132.960938 L 216.972656 135.199219 L 213.789062 124.800781 C 210.089844 112.800781 209.636719 111.585938 208.414062 110.144531 C 206.136719 107.488281 200.363281 107.519531 197.746094 110.207031 C 196.664062 111.296875 196.210938 112.574219 192.683594 124.03125 C 190.863281 130.015625 189.355469 134.910156 189.328125 134.976562 C 189.269531 135.007812 187.933594 129.855469 186.3125 123.550781 C 184.71875 117.214844 183.125 111.519531 182.785156 110.847656 C 181.816406 108.929688 180.964844 108.414062 178.574219 108.257812 C 176.953125 108.160156 176.242188 108.257812 175.332031 108.734375 Z M 175.332031 108.734375 "/>
<path style=" stroke:none;fill-rule:nonzero;fill:rgb(0%,0%,0%);fill-opacity:1;" d="M 22.472656 161.886719 C 22.472656 162.558594 23.78125 166.878906 25.230469 171.039062 C 34.957031 198.753906 53.761719 221.726562 77.882812 235.328125 C 89.683594 241.984375 101.546875 245.953125 115.484375 247.902344 C 121.683594 248.769531 135.253906 248.671875 141.652344 247.742188 C 147 246.976562 150.8125 246.144531 155.703125 244.769531 C 191.488281 234.65625 220.730469 204.703125 232.390625 166.144531 L 233.785156 161.601562 L 218.226562 161.601562 L 217.855469 162.785156 C 217.316406 164.703125 215.523438 169.503906 214.1875 172.542969 L 212.992188 175.359375 L 181.503906 175.359375 L 181.929688 173.984375 C 182.328125 172.703125 184.375 164.320312 184.71875 162.464844 L 184.890625 161.601562 L 169.925781 161.601562 L 168.988281 165.503906 C 168.476562 167.679688 167.625 170.71875 167.109375 172.320312 L 166.199219 175.199219 L 149.929688 175.296875 L 133.6875 175.359375 L 133.6875 161.601562 L 118.898438 161.601562 L 118.898438 175.359375 L 89.171875 175.359375 L 88.121094 171.425781 C 87.523438 169.28125 86.785156 166.175781 86.414062 164.542969 L 85.789062 161.601562 L 70.769531 161.601562 L 70.941406 162.785156 C 71.109375 163.871094 73.074219 172.800781 73.558594 174.625 L 73.726562 175.359375 L 43.035156 175.359375 L 41.472656 171.585938 C 40.589844 169.535156 39.394531 166.433594 38.796875 164.703125 L 37.746094 161.601562 L 30.09375 161.601562 C 25.800781 161.601562 22.472656 161.726562 22.472656 161.886719 Z M 157.839844 193.664062 C 153.402344 201.601562 147.769531 209.152344 142.25 214.527344 C 139.632812 217.089844 135.339844 220.800781 134.230469 221.472656 C 133.71875 221.761719 133.6875 221.3125 133.6875 206.878906 L 133.6875 192 L 146.148438 191.9375 C 152.972656 191.871094 158.632812 191.871094 158.691406 191.902344 C 158.75 191.9375 158.378906 192.734375 157.839844 193.664062 Z M 81.464844 197.664062 C 86.300781 208.734375 91.277344 216.960938 97.820312 224.640625 C 99.242188 226.304688 100.410156 227.710938 100.410156 227.710938 C 100.410156 227.742188 98.957031 227.199219 97.167969 226.527344 C 81.722656 220.734375 68.152344 210.910156 57.230469 197.695312 C 55.863281 196.03125 54.300781 194.046875 53.789062 193.34375 L 52.851562 192 L 78.988281 192 Z M 118.898438 207.359375 L 118.898438 222.753906 L 117.617188 221.761719 C 111.417969 216.960938 105.472656 209.984375 100.550781 201.761719 C 98.703125 198.625 95.574219 192.671875 95.574219 192.222656 C 95.574219 192.097656 100.835938 192 107.234375 192 L 118.898438 192 Z M 202.722656 192.671875 C 201.472656 194.6875 196.808594 200.257812 193.707031 203.425781 C 182.300781 215.199219 169.015625 223.488281 154 228.191406 C 151.722656 228.894531 149.816406 229.441406 149.761719 229.375 C 149.703125 229.3125 150.414062 228.542969 151.351562 227.679688 C 154.113281 225.121094 161.507812 216.449219 164.011719 212.800781 C 167.339844 207.96875 170.753906 202.113281 173.367188 196.703125 L 175.644531 192.03125 L 189.382812 192 L 203.121094 192 Z M 202.722656 192.671875 "/>
</g>
</svg>
