<?xml version="1.0" encoding="UTF-8"?>
<svg xmlns="http://www.w3.org/2000/svg" xmlns:xlink="http://www.w3.org/1999/xlink" width="256px" height="256px" viewBox="0 0 256 256" version="1.1">
<g id="surface1">
<path style=" stroke:none;fill-rule:nonzero;fill:rgb(0%,0%,0%);fill-opacity:1;" d="M 44.515625 16.851562 C 36.195312 17.136719 35.980469 17.136719 32.710938 19.554688 C 28.300781 22.828125 14.792969 36.835938 10.097656 43.023438 C 3.769531 51.484375 3.34375 52.691406 3.699219 62.792969 C 3.910156 70.328125 4.195312 71.964844 5.761719 75.378906 C 8.320312 80.851562 12.65625 85.332031 17.921875 88.25 C 21.972656 90.453125 22.898438 90.667969 28.089844 90.667969 C 32.355469 90.59375 34.632812 90.238281 37.191406 89.03125 C 44.65625 85.6875 49.847656 79.785156 51.980469 72.179688 C 52.90625 68.90625 53.261719 68.410156 53.261719 70.042969 C 53.332031 71.183594 54.257812 74.097656 55.324219 76.445312 C 59.734375 85.761719 69.902344 91.734375 79.785156 90.808594 C 90.027344 89.882812 99.554688 81.707031 101.546875 72.035156 L 102.117188 69.40625 L 103.679688 73.8125 C 105.882812 79.859375 111.503906 85.832031 117.476562 88.605469 C 121.316406 90.382812 122.808594 90.667969 128 90.667969 C 133.191406 90.667969 134.683594 90.382812 138.523438 88.605469 C 145.777344 85.261719 150.328125 79.644531 153.386719 70.398438 C 153.601562 69.832031 154.097656 70.828125 154.59375 72.605469 C 159.21875 90.238281 181.050781 96.78125 194.417969 84.550781 C 198.542969 80.851562 202.667969 73.8125 202.738281 70.472656 C 202.738281 69.261719 203.234375 70.117188 204.089844 72.890625 C 207.714844 83.980469 218.808594 91.804688 229.6875 90.808594 C 237.652344 90.097656 245.972656 83.910156 250.027344 75.734375 C 251.875 71.820312 252.089844 70.683594 252.375 62.792969 C 252.65625 52.691406 252.230469 51.484375 245.902344 43.023438 C 241.136719 36.691406 228.691406 23.820312 223.503906 19.769531 L 219.519531 16.710938 L 136.25 16.640625 C 90.453125 16.640625 49.136719 16.710938 44.515625 16.851562 Z M 44.515625 16.851562 "/>
<path style=" stroke:none;fill-rule:nonzero;fill:rgb(0%,0%,0%);fill-opacity:1;" d="M 49.847656 88.035156 C 45.296875 94.078125 35.699219 98.84375 28.019531 98.84375 L 24.320312 98.84375 L 23.894531 101.832031 C 22.753906 110.507812 21.902344 143.148438 22.257812 165.546875 C 22.753906 196.835938 24.460938 212.691406 28.445312 224.355469 C 30.863281 231.394531 32.285156 233.03125 36.480469 233.882812 C 47.289062 236.019531 63.289062 237.722656 84.976562 239.003906 C 102.542969 240.070312 152.960938 240.070312 170.667969 239.003906 C 193.636719 237.652344 217.8125 234.949219 222.292969 233.246094 C 224.214844 232.460938 227.625 225.492188 229.191406 219.023438 C 230.828125 212.410156 232.390625 199.75 233.246094 187.378906 C 234.523438 167.964844 233.882812 118.1875 232.179688 102.683594 L 231.75 99.058594 L 226.632812 98.703125 C 222.792969 98.488281 220.300781 97.777344 216.816406 96.140625 C 212.265625 93.9375 206.4375 89.246094 204.941406 86.398438 C 204.230469 85.050781 203.875 85.332031 200.179688 89.386719 C 188.089844 102.753906 166.828125 101.902344 156.019531 87.679688 L 153.671875 84.621094 L 152.179688 87.109375 C 150.117188 90.453125 145.492188 94.078125 140.375 96.496094 C 136.535156 98.347656 135.464844 98.488281 128 98.488281 C 120.605469 98.488281 119.464844 98.277344 115.699219 96.570312 C 110.4375 94.078125 106.738281 91.164062 104.25 87.539062 L 102.257812 84.691406 L 99.980469 87.679688 C 94.222656 95.21875 85.332031 99.199219 75.519531 98.703125 C 66.417969 98.203125 59.09375 94.363281 54.117188 87.464844 L 52.265625 84.835938 Z M 96 113.847656 C 98.132812 114.914062 101.332031 116.976562 103.109375 118.542969 L 106.3125 121.316406 L 112.710938 120.816406 C 121.03125 120.179688 135.964844 120.179688 143.644531 120.816406 L 149.6875 121.316406 L 152.890625 118.542969 C 154.667969 116.976562 157.867188 114.84375 160 113.847656 C 163.554688 112.140625 164.691406 112 172.445312 112 C 180.054688 112 181.332031 112.214844 184.535156 113.707031 C 193.136719 117.902344 200.390625 128.925781 206.152344 146.632812 C 209.847656 158.152344 218.027344 188.871094 219.023438 195.199219 C 220.515625 204.515625 218.667969 210.558594 213.332031 213.617188 C 211.199219 214.898438 209.636719 215.109375 201.957031 215.109375 C 191.503906 215.109375 186.097656 213.617188 179.625 208.996094 C 172.730469 204.089844 167.109375 193.992188 167.109375 186.523438 C 167.109375 184.25 166.96875 184.105469 165.191406 184.460938 C 150.398438 187.449219 106.167969 187.449219 91.164062 184.460938 C 88.960938 184.035156 88.890625 184.035156 88.890625 186.523438 C 88.890625 190.007812 86.683594 196.691406 84.335938 200.460938 C 78.152344 210.132812 67.484375 215.464844 54.042969 215.464844 C 46.4375 215.464844 43.023438 214.542969 40.105469 211.625 C 34.84375 206.363281 35.199219 199.464844 42.3125 172.800781 C 51.769531 137.246094 57.316406 124.445312 66.632812 116.835938 C 71.609375 112.78125 75.804688 111.574219 84.621094 111.859375 C 90.878906 112 92.730469 112.355469 96 113.847656 Z M 96 113.847656 "/>
<path style=" stroke:none;fill-rule:nonzero;fill:rgb(0%,0%,0%);fill-opacity:1;" d="M 120.890625 142.007812 C 113.777344 148.691406 102.398438 161.136719 102.398438 162.277344 C 102.398438 162.632812 105.246094 162.84375 109.367188 162.773438 L 116.265625 162.632812 L 116.480469 169.03125 L 116.691406 175.429688 L 139.308594 175.429688 L 139.519531 169.03125 L 139.734375 162.632812 L 146.703125 162.773438 C 150.472656 162.84375 153.601562 162.632812 153.601562 162.347656 C 153.601562 160.570312 129.707031 135.820312 128 135.820312 C 127.785156 135.820312 124.585938 138.59375 120.890625 142.007812 Z M 120.890625 142.007812 "/>
</g>
</svg>
