<?xml version="1.0" standalone="no"?>
<!DOCTYPE svg PUBLIC "-//W3C//DTD SVG 20010904//EN"
 "http://www.w3.org/TR/2001/REC-SVG-20010904/DTD/svg10.dtd">
<svg version="1.0" xmlns="http://www.w3.org/2000/svg"
 width="225.000000pt" height="225.000000pt" viewBox="0 0 225.000000 225.000000"
 preserveAspectRatio="xMidYMid meet">

<g transform="translate(0.000000,225.000000) scale(0.100000,-0.100000)"
fill="#000000" stroke="none">
<path d="M363 2103 c-61 -4 -63 -5 -137 -74 -42 -39 -103 -107 -136 -151 l-60
-79 0 -85 c0 -49 6 -98 14 -118 36 -86 141 -154 219 -142 86 14 155 70 187
152 13 33 19 42 20 26 1 -74 84 -156 178 -177 100 -21 217 61 242 170 l7 30
11 -40 c48 -170 277 -216 391 -78 17 21 37 56 43 78 l11 40 7 -30 c25 -109
142 -191 242 -170 94 21 177 103 178 177 1 16 7 7 20 -26 63 -162 258 -201
365 -74 43 51 55 90 55 178 0 77 -2 85 -37 138 -21 31 -80 100 -133 153 l-95
96 -130 6 c-130 7 -1345 6 -1462 0z"/>
<path d="M419 1464 c-42 -45 -122 -84 -171 -84 l-37 0 -7 -57 c-5 -32 -8 -227
-8 -433 0 -298 4 -396 17 -478 18 -108 49 -197 76 -211 24 -13 228 -39 393
-51 187 -13 699 -13 888 0 168 12 366 37 390 50 28 15 59 102 77 212 13 82 17
179 17 478 1 206 -3 401 -7 433 l-8 57 -37 0 c-49 0 -129 39 -171 83 l-34 36
-43 -44 c-100 -100 -258 -100 -358 0 l-43 44 -38 -39 c-105 -108 -279 -106
-384 4 l-34 35 -36 -37 c-56 -57 -104 -77 -186 -77 -82 0 -125 18 -182 76
l-39 39 -35 -36z m401 -204 c19 -5 52 -23 72 -40 l37 -31 196 0 196 0 37 31
c45 37 88 50 166 50 79 0 136 -28 186 -91 59 -74 83 -136 151 -375 74 -259 86
-360 50 -406 -56 -70 -236 -60 -339 19 -48 36 -91 108 -98 166 -6 43 -9 48
-28 43 -12 -3 -88 -11 -170 -17 -142 -11 -407 -1 -473 17 -21 6 -23 3 -23 -28
0 -78 -77 -180 -167 -220 -55 -24 -156 -33 -210 -19 -106 29 -109 108 -14 446
35 121 76 249 94 284 35 71 101 145 150 166 37 17 137 19 187 5z"/>
<path d="M1010 943 l-115 -118 63 -3 62 -3 0 -54 0 -55 105 0 105 0 0 55 0 54
63 3 62 3 -115 118 -115 118 -115 -118z"/>
</g>
</svg>
